G04 #@! TF.GenerationSoftware,KiCad,Pcbnew,5.1.5-52549c5~86~ubuntu18.04.1*
G04 #@! TF.CreationDate,2020-05-16T08:59:09-06:00*
G04 #@! TF.ProjectId,openturret-hat,6f70656e-7475-4727-9265-742d6861742e,rev?*
G04 #@! TF.SameCoordinates,Original*
G04 #@! TF.FileFunction,Legend,Bot*
G04 #@! TF.FilePolarity,Positive*
%FSLAX46Y46*%
G04 Gerber Fmt 4.6, Leading zero omitted, Abs format (unit mm)*
G04 Created by KiCad (PCBNEW 5.1.5-52549c5~86~ubuntu18.04.1) date 2020-05-16 08:59:09*
%MOMM*%
%LPD*%
G04 APERTURE LIST*
%ADD10C,1.000000*%
%ADD11C,0.125000*%
G04 APERTURE END LIST*
D10*
X130175000Y-100330000D02*
X115824000Y-100330000D01*
X123063000Y-78867000D02*
X130175000Y-100330000D01*
X115824000Y-100330000D02*
X123063000Y-78867000D01*
G36*
X120015000Y-112903000D02*
G01*
X112903000Y-91440000D01*
X127254000Y-91440000D01*
X120015000Y-112903000D01*
G37*
X120015000Y-112903000D02*
X112903000Y-91440000D01*
X127254000Y-91440000D01*
X120015000Y-112903000D01*
D11*
X110569619Y-71092190D02*
X110569619Y-70592190D01*
X110736285Y-70949333D01*
X110902952Y-70592190D01*
X110902952Y-71092190D01*
X111402952Y-71092190D02*
X111117238Y-71092190D01*
X111260095Y-71092190D02*
X111260095Y-70592190D01*
X111212476Y-70663619D01*
X111164857Y-70711238D01*
X111117238Y-70735047D01*
X111617238Y-70901714D02*
X111998190Y-70901714D01*
X112450571Y-71068380D02*
X112402952Y-71092190D01*
X112307714Y-71092190D01*
X112260095Y-71068380D01*
X112236285Y-71044571D01*
X112212476Y-70996952D01*
X112212476Y-70854095D01*
X112236285Y-70806476D01*
X112260095Y-70782666D01*
X112307714Y-70758857D01*
X112402952Y-70758857D01*
X112450571Y-70782666D01*
X112736285Y-71092190D02*
X112688666Y-71068380D01*
X112664857Y-71044571D01*
X112641047Y-70996952D01*
X112641047Y-70854095D01*
X112664857Y-70806476D01*
X112688666Y-70782666D01*
X112736285Y-70758857D01*
X112807714Y-70758857D01*
X112855333Y-70782666D01*
X112879142Y-70806476D01*
X112902952Y-70854095D01*
X112902952Y-70996952D01*
X112879142Y-71044571D01*
X112855333Y-71068380D01*
X112807714Y-71092190D01*
X112736285Y-71092190D01*
X113117238Y-71092190D02*
X113117238Y-70758857D01*
X113117238Y-70592190D02*
X113093428Y-70616000D01*
X113117238Y-70639809D01*
X113141047Y-70616000D01*
X113117238Y-70592190D01*
X113117238Y-70639809D01*
X113426761Y-71092190D02*
X113379142Y-71068380D01*
X113355333Y-71020761D01*
X113355333Y-70592190D01*
X113617238Y-70901714D02*
X113998190Y-70901714D01*
X114498190Y-71092190D02*
X114212476Y-71092190D01*
X114355333Y-71092190D02*
X114355333Y-70592190D01*
X114307714Y-70663619D01*
X114260095Y-70711238D01*
X114212476Y-70735047D01*
X114474380Y-121947809D02*
X114474380Y-122447809D01*
X114307714Y-122090666D01*
X114141047Y-122447809D01*
X114141047Y-121947809D01*
X113807714Y-122447809D02*
X113760095Y-122447809D01*
X113712476Y-122424000D01*
X113688666Y-122400190D01*
X113664857Y-122352571D01*
X113641047Y-122257333D01*
X113641047Y-122138285D01*
X113664857Y-122043047D01*
X113688666Y-121995428D01*
X113712476Y-121971619D01*
X113760095Y-121947809D01*
X113807714Y-121947809D01*
X113855333Y-121971619D01*
X113879142Y-121995428D01*
X113902952Y-122043047D01*
X113926761Y-122138285D01*
X113926761Y-122257333D01*
X113902952Y-122352571D01*
X113879142Y-122400190D01*
X113855333Y-122424000D01*
X113807714Y-122447809D01*
X113426761Y-122138285D02*
X113045809Y-122138285D01*
X112593428Y-121971619D02*
X112641047Y-121947809D01*
X112736285Y-121947809D01*
X112783904Y-121971619D01*
X112807714Y-121995428D01*
X112831523Y-122043047D01*
X112831523Y-122185904D01*
X112807714Y-122233523D01*
X112783904Y-122257333D01*
X112736285Y-122281142D01*
X112641047Y-122281142D01*
X112593428Y-122257333D01*
X112307714Y-121947809D02*
X112355333Y-121971619D01*
X112379142Y-121995428D01*
X112402952Y-122043047D01*
X112402952Y-122185904D01*
X112379142Y-122233523D01*
X112355333Y-122257333D01*
X112307714Y-122281142D01*
X112236285Y-122281142D01*
X112188666Y-122257333D01*
X112164857Y-122233523D01*
X112141047Y-122185904D01*
X112141047Y-122043047D01*
X112164857Y-121995428D01*
X112188666Y-121971619D01*
X112236285Y-121947809D01*
X112307714Y-121947809D01*
X111926761Y-121947809D02*
X111926761Y-122281142D01*
X111926761Y-122447809D02*
X111950571Y-122424000D01*
X111926761Y-122400190D01*
X111902952Y-122424000D01*
X111926761Y-122447809D01*
X111926761Y-122400190D01*
X111617238Y-121947809D02*
X111664857Y-121971619D01*
X111688666Y-122019238D01*
X111688666Y-122447809D01*
X111426761Y-122138285D02*
X111045809Y-122138285D01*
X110545809Y-121947809D02*
X110831523Y-121947809D01*
X110688666Y-121947809D02*
X110688666Y-122447809D01*
X110736285Y-122376380D01*
X110783904Y-122328761D01*
X110831523Y-122304952D01*
M02*
