G04 #@! TF.GenerationSoftware,KiCad,Pcbnew,5.1.5-52549c5~86~ubuntu18.04.1*
G04 #@! TF.CreationDate,2020-05-16T08:59:09-06:00*
G04 #@! TF.ProjectId,openturret-hat,6f70656e-7475-4727-9265-742d6861742e,rev?*
G04 #@! TF.SameCoordinates,Original*
G04 #@! TF.FileFunction,Legend,Top*
G04 #@! TF.FilePolarity,Positive*
%FSLAX46Y46*%
G04 Gerber Fmt 4.6, Leading zero omitted, Abs format (unit mm)*
G04 Created by KiCad (PCBNEW 5.1.5-52549c5~86~ubuntu18.04.1) date 2020-05-16 08:59:09*
%MOMM*%
%LPD*%
G04 APERTURE LIST*
%ADD10C,0.150000*%
%ADD11C,0.120000*%
%ADD12C,0.125000*%
G04 APERTURE END LIST*
D10*
X123138110Y-117419380D02*
X123263110Y-116419380D01*
X123644062Y-116419380D01*
X123733348Y-116467000D01*
X123775014Y-116514619D01*
X123810729Y-116609857D01*
X123792872Y-116752714D01*
X123733348Y-116847952D01*
X123679776Y-116895571D01*
X123578586Y-116943190D01*
X123197633Y-116943190D01*
X124525014Y-117371761D02*
X124423824Y-117419380D01*
X124233348Y-117419380D01*
X124144062Y-117371761D01*
X124108348Y-117276523D01*
X124155967Y-116895571D01*
X124215491Y-116800333D01*
X124316681Y-116752714D01*
X124507157Y-116752714D01*
X124596443Y-116800333D01*
X124632157Y-116895571D01*
X124620252Y-116990809D01*
X124132157Y-117086047D01*
X124983348Y-116752714D02*
X125090491Y-117419380D01*
X125340491Y-116943190D01*
X125471443Y-117419380D01*
X125745252Y-116752714D01*
X126804776Y-117419380D02*
X126929776Y-116419380D01*
X127310729Y-116419380D01*
X127400014Y-116467000D01*
X127441681Y-116514619D01*
X127477395Y-116609857D01*
X127459538Y-116752714D01*
X127400014Y-116847952D01*
X127346443Y-116895571D01*
X127245252Y-116943190D01*
X126864300Y-116943190D01*
X128191681Y-117371761D02*
X128090491Y-117419380D01*
X127900014Y-117419380D01*
X127810729Y-117371761D01*
X127775014Y-117276523D01*
X127822633Y-116895571D01*
X127882157Y-116800333D01*
X127983348Y-116752714D01*
X128173824Y-116752714D01*
X128263110Y-116800333D01*
X128298824Y-116895571D01*
X128286919Y-116990809D01*
X127798824Y-117086047D01*
X128650014Y-116752714D02*
X128757157Y-117419380D01*
X129007157Y-116943190D01*
X129138110Y-117419380D01*
X129411919Y-116752714D01*
X129721443Y-117324142D02*
X129763110Y-117371761D01*
X129709538Y-117419380D01*
X129667872Y-117371761D01*
X129721443Y-117324142D01*
X129709538Y-117419380D01*
X130197633Y-117324142D02*
X130239300Y-117371761D01*
X130185729Y-117419380D01*
X130144062Y-117371761D01*
X130197633Y-117324142D01*
X130185729Y-117419380D01*
X130673824Y-117324142D02*
X130715491Y-117371761D01*
X130661919Y-117419380D01*
X130620252Y-117371761D01*
X130673824Y-117324142D01*
X130661919Y-117419380D01*
D11*
X120777000Y-116967000D02*
X120777000Y-118364000D01*
X119253000Y-115443000D02*
X117856000Y-115443000D01*
X120777000Y-113919000D02*
X120777000Y-112522000D01*
X122301000Y-115443000D02*
X123698000Y-115443000D01*
X122824813Y-115443000D02*
G75*
G03X122824813Y-115443000I-2047813J0D01*
G01*
D12*
X125579333Y-70592190D02*
X125341238Y-70592190D01*
X125317428Y-70830285D01*
X125341238Y-70806476D01*
X125388857Y-70782666D01*
X125507904Y-70782666D01*
X125555523Y-70806476D01*
X125579333Y-70830285D01*
X125603142Y-70877904D01*
X125603142Y-70996952D01*
X125579333Y-71044571D01*
X125555523Y-71068380D01*
X125507904Y-71092190D01*
X125388857Y-71092190D01*
X125341238Y-71068380D01*
X125317428Y-71044571D01*
X125817428Y-70901714D02*
X126198380Y-70901714D01*
X126698380Y-71092190D02*
X126412666Y-71092190D01*
X126555523Y-71092190D02*
X126555523Y-70592190D01*
X126507904Y-70663619D01*
X126460285Y-70711238D01*
X126412666Y-70735047D01*
X127007904Y-70592190D02*
X127055523Y-70592190D01*
X127103142Y-70616000D01*
X127126952Y-70639809D01*
X127150761Y-70687428D01*
X127174571Y-70782666D01*
X127174571Y-70901714D01*
X127150761Y-70996952D01*
X127126952Y-71044571D01*
X127103142Y-71068380D01*
X127055523Y-71092190D01*
X127007904Y-71092190D01*
X126960285Y-71068380D01*
X126936476Y-71044571D01*
X126912666Y-70996952D01*
X126888857Y-70901714D01*
X126888857Y-70782666D01*
X126912666Y-70687428D01*
X126936476Y-70639809D01*
X126960285Y-70616000D01*
X127007904Y-70592190D01*
X127341238Y-70758857D02*
X127460285Y-71092190D01*
X127579333Y-70758857D01*
X127769809Y-70901714D02*
X128150761Y-70901714D01*
X127960285Y-71092190D02*
X127960285Y-70711238D01*
X120269047Y-70616000D02*
X120221428Y-70592190D01*
X120150000Y-70592190D01*
X120078571Y-70616000D01*
X120030952Y-70663619D01*
X120007142Y-70711238D01*
X119983333Y-70806476D01*
X119983333Y-70877904D01*
X120007142Y-70973142D01*
X120030952Y-71020761D01*
X120078571Y-71068380D01*
X120150000Y-71092190D01*
X120197619Y-71092190D01*
X120269047Y-71068380D01*
X120292857Y-71044571D01*
X120292857Y-70877904D01*
X120197619Y-70877904D01*
X120507142Y-71092190D02*
X120507142Y-70592190D01*
X120792857Y-71092190D01*
X120792857Y-70592190D01*
X121030952Y-71092190D02*
X121030952Y-70592190D01*
X121150000Y-70592190D01*
X121221428Y-70616000D01*
X121269047Y-70663619D01*
X121292857Y-70711238D01*
X121316666Y-70806476D01*
X121316666Y-70877904D01*
X121292857Y-70973142D01*
X121269047Y-71020761D01*
X121221428Y-71068380D01*
X121150000Y-71092190D01*
X121030952Y-71092190D01*
X114410880Y-121884309D02*
X114410880Y-122384309D01*
X114244214Y-122027166D01*
X114077547Y-122384309D01*
X114077547Y-121884309D01*
X113744214Y-122384309D02*
X113696595Y-122384309D01*
X113648976Y-122360500D01*
X113625166Y-122336690D01*
X113601357Y-122289071D01*
X113577547Y-122193833D01*
X113577547Y-122074785D01*
X113601357Y-121979547D01*
X113625166Y-121931928D01*
X113648976Y-121908119D01*
X113696595Y-121884309D01*
X113744214Y-121884309D01*
X113791833Y-121908119D01*
X113815642Y-121931928D01*
X113839452Y-121979547D01*
X113863261Y-122074785D01*
X113863261Y-122193833D01*
X113839452Y-122289071D01*
X113815642Y-122336690D01*
X113791833Y-122360500D01*
X113744214Y-122384309D01*
X113363261Y-122074785D02*
X112982309Y-122074785D01*
X112529928Y-121908119D02*
X112577547Y-121884309D01*
X112672785Y-121884309D01*
X112720404Y-121908119D01*
X112744214Y-121931928D01*
X112768023Y-121979547D01*
X112768023Y-122122404D01*
X112744214Y-122170023D01*
X112720404Y-122193833D01*
X112672785Y-122217642D01*
X112577547Y-122217642D01*
X112529928Y-122193833D01*
X112244214Y-121884309D02*
X112291833Y-121908119D01*
X112315642Y-121931928D01*
X112339452Y-121979547D01*
X112339452Y-122122404D01*
X112315642Y-122170023D01*
X112291833Y-122193833D01*
X112244214Y-122217642D01*
X112172785Y-122217642D01*
X112125166Y-122193833D01*
X112101357Y-122170023D01*
X112077547Y-122122404D01*
X112077547Y-121979547D01*
X112101357Y-121931928D01*
X112125166Y-121908119D01*
X112172785Y-121884309D01*
X112244214Y-121884309D01*
X111863261Y-121884309D02*
X111863261Y-122217642D01*
X111863261Y-122384309D02*
X111887071Y-122360500D01*
X111863261Y-122336690D01*
X111839452Y-122360500D01*
X111863261Y-122384309D01*
X111863261Y-122336690D01*
X111553738Y-121884309D02*
X111601357Y-121908119D01*
X111625166Y-121955738D01*
X111625166Y-122384309D01*
X111363261Y-122074785D02*
X110982309Y-122074785D01*
X110648976Y-122384309D02*
X110601357Y-122384309D01*
X110553738Y-122360500D01*
X110529928Y-122336690D01*
X110506119Y-122289071D01*
X110482309Y-122193833D01*
X110482309Y-122074785D01*
X110506119Y-121979547D01*
X110529928Y-121931928D01*
X110553738Y-121908119D01*
X110601357Y-121884309D01*
X110648976Y-121884309D01*
X110696595Y-121908119D01*
X110720404Y-121931928D01*
X110744214Y-121979547D01*
X110768023Y-122074785D01*
X110768023Y-122193833D01*
X110744214Y-122289071D01*
X110720404Y-122336690D01*
X110696595Y-122360500D01*
X110648976Y-122384309D01*
X110569619Y-71092190D02*
X110569619Y-70592190D01*
X110736285Y-70949333D01*
X110902952Y-70592190D01*
X110902952Y-71092190D01*
X111402952Y-71092190D02*
X111117238Y-71092190D01*
X111260095Y-71092190D02*
X111260095Y-70592190D01*
X111212476Y-70663619D01*
X111164857Y-70711238D01*
X111117238Y-70735047D01*
X111617238Y-70901714D02*
X111998190Y-70901714D01*
X112450571Y-71068380D02*
X112402952Y-71092190D01*
X112307714Y-71092190D01*
X112260095Y-71068380D01*
X112236285Y-71044571D01*
X112212476Y-70996952D01*
X112212476Y-70854095D01*
X112236285Y-70806476D01*
X112260095Y-70782666D01*
X112307714Y-70758857D01*
X112402952Y-70758857D01*
X112450571Y-70782666D01*
X112736285Y-71092190D02*
X112688666Y-71068380D01*
X112664857Y-71044571D01*
X112641047Y-70996952D01*
X112641047Y-70854095D01*
X112664857Y-70806476D01*
X112688666Y-70782666D01*
X112736285Y-70758857D01*
X112807714Y-70758857D01*
X112855333Y-70782666D01*
X112879142Y-70806476D01*
X112902952Y-70854095D01*
X112902952Y-70996952D01*
X112879142Y-71044571D01*
X112855333Y-71068380D01*
X112807714Y-71092190D01*
X112736285Y-71092190D01*
X113117238Y-71092190D02*
X113117238Y-70758857D01*
X113117238Y-70592190D02*
X113093428Y-70616000D01*
X113117238Y-70639809D01*
X113141047Y-70616000D01*
X113117238Y-70592190D01*
X113117238Y-70639809D01*
X113426761Y-71092190D02*
X113379142Y-71068380D01*
X113355333Y-71020761D01*
X113355333Y-70592190D01*
X113617238Y-70901714D02*
X113998190Y-70901714D01*
X114331523Y-70592190D02*
X114379142Y-70592190D01*
X114426761Y-70616000D01*
X114450571Y-70639809D01*
X114474380Y-70687428D01*
X114498190Y-70782666D01*
X114498190Y-70901714D01*
X114474380Y-70996952D01*
X114450571Y-71044571D01*
X114426761Y-71068380D01*
X114379142Y-71092190D01*
X114331523Y-71092190D01*
X114283904Y-71068380D01*
X114260095Y-71044571D01*
X114236285Y-70996952D01*
X114212476Y-70901714D01*
X114212476Y-70782666D01*
X114236285Y-70687428D01*
X114260095Y-70639809D01*
X114283904Y-70616000D01*
X114331523Y-70592190D01*
D11*
X121974000Y-75914000D02*
X121974000Y-74404000D01*
X125675000Y-75914000D02*
X125675000Y-74404000D01*
X128945000Y-74404000D02*
X118705000Y-74404000D01*
X118705000Y-75914000D02*
X118705000Y-71273000D01*
X128945000Y-75914000D02*
X128945000Y-71273000D01*
X128945000Y-71273000D02*
X118705000Y-71273000D01*
X128945000Y-75914000D02*
X118705000Y-75914000D01*
X127427500Y-84458500D02*
X125777500Y-84458500D01*
X127427500Y-102358500D02*
X127427500Y-84458500D01*
X122127500Y-102358500D02*
X127427500Y-102358500D01*
X122127500Y-84458500D02*
X122127500Y-102358500D01*
X123777500Y-84458500D02*
X122127500Y-84458500D01*
X125777500Y-84458500D02*
G75*
G02X123777500Y-84458500I-1000000J0D01*
G01*
X115235500Y-71377500D02*
X113585500Y-71377500D01*
X115235500Y-91817500D02*
X115235500Y-71377500D01*
X109935500Y-91817500D02*
X115235500Y-91817500D01*
X109935500Y-71377500D02*
X109935500Y-91817500D01*
X111585500Y-71377500D02*
X109935500Y-71377500D01*
X113585500Y-71377500D02*
G75*
G02X111585500Y-71377500I-1000000J0D01*
G01*
X115108500Y-101286000D02*
X113458500Y-101286000D01*
X115108500Y-121726000D02*
X115108500Y-101286000D01*
X109808500Y-121726000D02*
X115108500Y-121726000D01*
X109808500Y-101286000D02*
X109808500Y-121726000D01*
X111458500Y-101286000D02*
X109808500Y-101286000D01*
X113458500Y-101286000D02*
G75*
G02X111458500Y-101286000I-1000000J0D01*
G01*
X122645500Y-120396000D02*
X122575500Y-120396000D01*
X125385500Y-120396000D02*
G75*
G03X125385500Y-120396000I-1370000J0D01*
G01*
X128457000Y-113852000D02*
X127127000Y-113852000D01*
X128457000Y-112522000D02*
X128457000Y-113852000D01*
X125857000Y-113852000D02*
X123257000Y-113852000D01*
X125857000Y-111252000D02*
X125857000Y-113852000D01*
X128457000Y-111252000D02*
X125857000Y-111252000D01*
X123257000Y-113852000D02*
X123257000Y-106112000D01*
X128457000Y-111252000D02*
X128457000Y-106112000D01*
X128457000Y-106112000D02*
X123257000Y-106112000D01*
X131596225Y-71516000D02*
X132926225Y-71516000D01*
X131596225Y-72846000D02*
X131596225Y-71516000D01*
X134196225Y-71516000D02*
X136796225Y-71516000D01*
X134196225Y-74116000D02*
X134196225Y-71516000D01*
X131596225Y-74116000D02*
X134196225Y-74116000D01*
X136796225Y-71516000D02*
X136796225Y-122436000D01*
X131596225Y-74116000D02*
X131596225Y-122436000D01*
X131596225Y-122436000D02*
X136796225Y-122436000D01*
X123790225Y-77777000D02*
X123790225Y-78277000D01*
X123540225Y-78027000D02*
X124040225Y-78027000D01*
X128946000Y-79218000D02*
X128946000Y-79786000D01*
X128906000Y-78984000D02*
X128906000Y-80020000D01*
X128866000Y-78825000D02*
X128866000Y-80179000D01*
X128826000Y-78697000D02*
X128826000Y-80307000D01*
X128786000Y-78587000D02*
X128786000Y-80417000D01*
X128746000Y-78491000D02*
X128746000Y-80513000D01*
X128706000Y-78404000D02*
X128706000Y-80600000D01*
X128666000Y-78324000D02*
X128666000Y-80680000D01*
X128626000Y-80542000D02*
X128626000Y-80753000D01*
X128626000Y-78251000D02*
X128626000Y-78462000D01*
X128586000Y-80542000D02*
X128586000Y-80821000D01*
X128586000Y-78183000D02*
X128586000Y-78462000D01*
X128546000Y-80542000D02*
X128546000Y-80885000D01*
X128546000Y-78119000D02*
X128546000Y-78462000D01*
X128506000Y-80542000D02*
X128506000Y-80945000D01*
X128506000Y-78059000D02*
X128506000Y-78462000D01*
X128466000Y-80542000D02*
X128466000Y-81002000D01*
X128466000Y-78002000D02*
X128466000Y-78462000D01*
X128426000Y-80542000D02*
X128426000Y-81056000D01*
X128426000Y-77948000D02*
X128426000Y-78462000D01*
X128386000Y-80542000D02*
X128386000Y-81107000D01*
X128386000Y-77897000D02*
X128386000Y-78462000D01*
X128346000Y-80542000D02*
X128346000Y-81155000D01*
X128346000Y-77849000D02*
X128346000Y-78462000D01*
X128306000Y-80542000D02*
X128306000Y-81201000D01*
X128306000Y-77803000D02*
X128306000Y-78462000D01*
X128266000Y-80542000D02*
X128266000Y-81245000D01*
X128266000Y-77759000D02*
X128266000Y-78462000D01*
X128226000Y-80542000D02*
X128226000Y-81287000D01*
X128226000Y-77717000D02*
X128226000Y-78462000D01*
X128186000Y-80542000D02*
X128186000Y-81328000D01*
X128186000Y-77676000D02*
X128186000Y-78462000D01*
X128146000Y-80542000D02*
X128146000Y-81366000D01*
X128146000Y-77638000D02*
X128146000Y-78462000D01*
X128106000Y-80542000D02*
X128106000Y-81403000D01*
X128106000Y-77601000D02*
X128106000Y-78462000D01*
X128066000Y-80542000D02*
X128066000Y-81439000D01*
X128066000Y-77565000D02*
X128066000Y-78462000D01*
X128026000Y-80542000D02*
X128026000Y-81473000D01*
X128026000Y-77531000D02*
X128026000Y-78462000D01*
X127986000Y-80542000D02*
X127986000Y-81506000D01*
X127986000Y-77498000D02*
X127986000Y-78462000D01*
X127946000Y-80542000D02*
X127946000Y-81537000D01*
X127946000Y-77467000D02*
X127946000Y-78462000D01*
X127906000Y-80542000D02*
X127906000Y-81567000D01*
X127906000Y-77437000D02*
X127906000Y-78462000D01*
X127866000Y-80542000D02*
X127866000Y-81597000D01*
X127866000Y-77407000D02*
X127866000Y-78462000D01*
X127826000Y-80542000D02*
X127826000Y-81624000D01*
X127826000Y-77380000D02*
X127826000Y-78462000D01*
X127786000Y-80542000D02*
X127786000Y-81651000D01*
X127786000Y-77353000D02*
X127786000Y-78462000D01*
X127746000Y-80542000D02*
X127746000Y-81677000D01*
X127746000Y-77327000D02*
X127746000Y-78462000D01*
X127706000Y-80542000D02*
X127706000Y-81702000D01*
X127706000Y-77302000D02*
X127706000Y-78462000D01*
X127666000Y-80542000D02*
X127666000Y-81726000D01*
X127666000Y-77278000D02*
X127666000Y-78462000D01*
X127626000Y-80542000D02*
X127626000Y-81749000D01*
X127626000Y-77255000D02*
X127626000Y-78462000D01*
X127586000Y-80542000D02*
X127586000Y-81770000D01*
X127586000Y-77234000D02*
X127586000Y-78462000D01*
X127546000Y-80542000D02*
X127546000Y-81792000D01*
X127546000Y-77212000D02*
X127546000Y-78462000D01*
X127506000Y-80542000D02*
X127506000Y-81812000D01*
X127506000Y-77192000D02*
X127506000Y-78462000D01*
X127466000Y-80542000D02*
X127466000Y-81831000D01*
X127466000Y-77173000D02*
X127466000Y-78462000D01*
X127426000Y-80542000D02*
X127426000Y-81850000D01*
X127426000Y-77154000D02*
X127426000Y-78462000D01*
X127386000Y-80542000D02*
X127386000Y-81867000D01*
X127386000Y-77137000D02*
X127386000Y-78462000D01*
X127346000Y-80542000D02*
X127346000Y-81884000D01*
X127346000Y-77120000D02*
X127346000Y-78462000D01*
X127306000Y-80542000D02*
X127306000Y-81900000D01*
X127306000Y-77104000D02*
X127306000Y-78462000D01*
X127266000Y-80542000D02*
X127266000Y-81916000D01*
X127266000Y-77088000D02*
X127266000Y-78462000D01*
X127226000Y-80542000D02*
X127226000Y-81930000D01*
X127226000Y-77074000D02*
X127226000Y-78462000D01*
X127186000Y-80542000D02*
X127186000Y-81944000D01*
X127186000Y-77060000D02*
X127186000Y-78462000D01*
X127146000Y-80542000D02*
X127146000Y-81957000D01*
X127146000Y-77047000D02*
X127146000Y-78462000D01*
X127106000Y-80542000D02*
X127106000Y-81970000D01*
X127106000Y-77034000D02*
X127106000Y-78462000D01*
X127066000Y-80542000D02*
X127066000Y-81982000D01*
X127066000Y-77022000D02*
X127066000Y-78462000D01*
X127025000Y-80542000D02*
X127025000Y-81993000D01*
X127025000Y-77011000D02*
X127025000Y-78462000D01*
X126985000Y-80542000D02*
X126985000Y-82003000D01*
X126985000Y-77001000D02*
X126985000Y-78462000D01*
X126945000Y-80542000D02*
X126945000Y-82013000D01*
X126945000Y-76991000D02*
X126945000Y-78462000D01*
X126905000Y-80542000D02*
X126905000Y-82022000D01*
X126905000Y-76982000D02*
X126905000Y-78462000D01*
X126865000Y-80542000D02*
X126865000Y-82030000D01*
X126865000Y-76974000D02*
X126865000Y-78462000D01*
X126825000Y-80542000D02*
X126825000Y-82038000D01*
X126825000Y-76966000D02*
X126825000Y-78462000D01*
X126785000Y-80542000D02*
X126785000Y-82045000D01*
X126785000Y-76959000D02*
X126785000Y-78462000D01*
X126745000Y-80542000D02*
X126745000Y-82052000D01*
X126745000Y-76952000D02*
X126745000Y-78462000D01*
X126705000Y-80542000D02*
X126705000Y-82058000D01*
X126705000Y-76946000D02*
X126705000Y-78462000D01*
X126665000Y-80542000D02*
X126665000Y-82063000D01*
X126665000Y-76941000D02*
X126665000Y-78462000D01*
X126625000Y-80542000D02*
X126625000Y-82067000D01*
X126625000Y-76937000D02*
X126625000Y-78462000D01*
X126585000Y-80542000D02*
X126585000Y-82071000D01*
X126585000Y-76933000D02*
X126585000Y-78462000D01*
X126545000Y-76929000D02*
X126545000Y-82075000D01*
X126505000Y-76926000D02*
X126505000Y-82078000D01*
X126465000Y-76924000D02*
X126465000Y-82080000D01*
X126425000Y-76923000D02*
X126425000Y-82081000D01*
X126385000Y-76922000D02*
X126385000Y-82082000D01*
X126345000Y-76922000D02*
X126345000Y-82082000D01*
X128965000Y-79502000D02*
G75*
G03X128965000Y-79502000I-2620000J0D01*
G01*
D10*
X119380095Y-76366380D02*
X119380095Y-77175904D01*
X119427714Y-77271142D01*
X119475333Y-77318761D01*
X119570571Y-77366380D01*
X119761047Y-77366380D01*
X119856285Y-77318761D01*
X119903904Y-77271142D01*
X119951523Y-77175904D01*
X119951523Y-76366380D01*
X120332476Y-76366380D02*
X120951523Y-76366380D01*
X120618190Y-76747333D01*
X120761047Y-76747333D01*
X120856285Y-76794952D01*
X120903904Y-76842571D01*
X120951523Y-76937809D01*
X120951523Y-77175904D01*
X120903904Y-77271142D01*
X120856285Y-77318761D01*
X120761047Y-77366380D01*
X120475333Y-77366380D01*
X120380095Y-77318761D01*
X120332476Y-77271142D01*
X124015595Y-92924380D02*
X124015595Y-93733904D01*
X124063214Y-93829142D01*
X124110833Y-93876761D01*
X124206071Y-93924380D01*
X124396547Y-93924380D01*
X124491785Y-93876761D01*
X124539404Y-93829142D01*
X124587023Y-93733904D01*
X124587023Y-92924380D01*
X125015595Y-93019619D02*
X125063214Y-92972000D01*
X125158452Y-92924380D01*
X125396547Y-92924380D01*
X125491785Y-92972000D01*
X125539404Y-93019619D01*
X125587023Y-93114857D01*
X125587023Y-93210095D01*
X125539404Y-93352952D01*
X124967976Y-93924380D01*
X125587023Y-93924380D01*
X111823595Y-80986380D02*
X111823595Y-81795904D01*
X111871214Y-81891142D01*
X111918833Y-81938761D01*
X112014071Y-81986380D01*
X112204547Y-81986380D01*
X112299785Y-81938761D01*
X112347404Y-81891142D01*
X112395023Y-81795904D01*
X112395023Y-80986380D01*
X113395023Y-81986380D02*
X112823595Y-81986380D01*
X113109309Y-81986380D02*
X113109309Y-80986380D01*
X113014071Y-81129238D01*
X112918833Y-81224476D01*
X112823595Y-81272095D01*
X111696595Y-110958380D02*
X111696595Y-111767904D01*
X111744214Y-111863142D01*
X111791833Y-111910761D01*
X111887071Y-111958380D01*
X112077547Y-111958380D01*
X112172785Y-111910761D01*
X112220404Y-111863142D01*
X112268023Y-111767904D01*
X112268023Y-110958380D01*
X112934690Y-110958380D02*
X113029928Y-110958380D01*
X113125166Y-111006000D01*
X113172785Y-111053619D01*
X113220404Y-111148857D01*
X113268023Y-111339333D01*
X113268023Y-111577428D01*
X113220404Y-111767904D01*
X113172785Y-111863142D01*
X113125166Y-111910761D01*
X113029928Y-111958380D01*
X112934690Y-111958380D01*
X112839452Y-111910761D01*
X112791833Y-111863142D01*
X112744214Y-111767904D01*
X112696595Y-111577428D01*
X112696595Y-111339333D01*
X112744214Y-111148857D01*
X112791833Y-111053619D01*
X112839452Y-111006000D01*
X112934690Y-110958380D01*
X126325333Y-120848380D02*
X125992000Y-120372190D01*
X125753904Y-120848380D02*
X125753904Y-119848380D01*
X126134857Y-119848380D01*
X126230095Y-119896000D01*
X126277714Y-119943619D01*
X126325333Y-120038857D01*
X126325333Y-120181714D01*
X126277714Y-120276952D01*
X126230095Y-120324571D01*
X126134857Y-120372190D01*
X125753904Y-120372190D01*
X126944380Y-119848380D02*
X127039619Y-119848380D01*
X127134857Y-119896000D01*
X127182476Y-119943619D01*
X127230095Y-120038857D01*
X127277714Y-120229333D01*
X127277714Y-120467428D01*
X127230095Y-120657904D01*
X127182476Y-120753142D01*
X127134857Y-120800761D01*
X127039619Y-120848380D01*
X126944380Y-120848380D01*
X126849142Y-120800761D01*
X126801523Y-120753142D01*
X126753904Y-120657904D01*
X126706285Y-120467428D01*
X126706285Y-120229333D01*
X126753904Y-120038857D01*
X126801523Y-119943619D01*
X126849142Y-119896000D01*
X126944380Y-119848380D01*
X125523666Y-114304380D02*
X125523666Y-115018666D01*
X125476047Y-115161523D01*
X125380809Y-115256761D01*
X125237952Y-115304380D01*
X125142714Y-115304380D01*
X125952238Y-114399619D02*
X125999857Y-114352000D01*
X126095095Y-114304380D01*
X126333190Y-114304380D01*
X126428428Y-114352000D01*
X126476047Y-114399619D01*
X126523666Y-114494857D01*
X126523666Y-114590095D01*
X126476047Y-114732952D01*
X125904619Y-115304380D01*
X126523666Y-115304380D01*
X129841666Y-71207380D02*
X129841666Y-71921666D01*
X129794047Y-72064523D01*
X129698809Y-72159761D01*
X129555952Y-72207380D01*
X129460714Y-72207380D01*
X130841666Y-72207380D02*
X130270238Y-72207380D01*
X130555952Y-72207380D02*
X130555952Y-71207380D01*
X130460714Y-71350238D01*
X130365476Y-71445476D01*
X130270238Y-71493095D01*
X122261333Y-79859142D02*
X122213714Y-79906761D01*
X122070857Y-79954380D01*
X121975619Y-79954380D01*
X121832761Y-79906761D01*
X121737523Y-79811523D01*
X121689904Y-79716285D01*
X121642285Y-79525809D01*
X121642285Y-79382952D01*
X121689904Y-79192476D01*
X121737523Y-79097238D01*
X121832761Y-79002000D01*
X121975619Y-78954380D01*
X122070857Y-78954380D01*
X122213714Y-79002000D01*
X122261333Y-79049619D01*
X123213714Y-79954380D02*
X122642285Y-79954380D01*
X122928000Y-79954380D02*
X122928000Y-78954380D01*
X122832761Y-79097238D01*
X122737523Y-79192476D01*
X122642285Y-79240095D01*
M02*
