M48
; DRILL file {KiCad 5.1.5-52549c5~86~ubuntu18.04.1} date Sat 16 May 2020 08:59:11 AM MDT
; FORMAT={-:-/ absolute / inch / decimal}
; #@! TF.CreationDate,2020-05-16T08:59:11-06:00
; #@! TF.GenerationSoftware,Kicad,Pcbnew,5.1.5-52549c5~86~ubuntu18.04.1
; #@! TF.FileFunction,Plated,1,2,PTH
FMAT,2
INCH
T1C0.0157
T2C0.0315
T3C0.0394
T4C0.0433
%
G90
G05
T1
X4.34Y-4.44
X4.3449Y-4.6159
X4.3525Y-3.38
X4.4Y-3.3325
X4.4101Y-4.6175
X4.4249Y-4.44
X4.4575Y-4.605
X4.4698Y-3.4902
X4.47Y-3.33
X4.4901Y-4.44
X4.5047Y-4.665
X4.5102Y-3.4498
X4.6675Y-3.555
X4.6875Y-3.4925
X4.77Y-3.06
X4.81Y-3.29
X4.812Y-3.018
X4.88Y-3.72
X4.925Y-3.885
X4.97Y-3.8375
X5.07Y-4.08
X5.1125Y-4.15
X5.13Y-3.965
T2
X4.2775Y-4.04
X4.2775Y-4.14
X4.2775Y-4.24
X4.2775Y-4.34
X4.2775Y-4.44
X4.2775Y-4.54
X4.2775Y-4.64
X4.2775Y-4.74
X4.5775Y-4.04
X4.5775Y-4.14
X4.5775Y-4.24
X4.5775Y-4.34
X4.5775Y-4.44
X4.5775Y-4.54
X4.5775Y-4.64
X4.5775Y-4.74
X4.925Y-3.13
X5.0234Y-3.13
X4.2825Y-2.8625
X4.2825Y-2.9625
X4.2825Y-3.0625
X4.2825Y-3.1625
X4.2825Y-3.2625
X4.2825Y-3.3625
X4.2825Y-3.4625
X4.2825Y-3.5625
X4.5825Y-2.8625
X4.5825Y-2.9625
X4.5825Y-3.0625
X4.5825Y-3.1625
X4.5825Y-3.2625
X4.5825Y-3.3625
X4.5825Y-3.4625
X4.5825Y-3.5625
X4.7625Y-3.3775
X4.7625Y-3.4775
X4.7625Y-3.5775
X4.7625Y-3.6775
X4.7625Y-3.7775
X4.7625Y-3.8775
X4.7625Y-3.9775
X5.0625Y-3.3775
X5.0625Y-3.4775
X5.0625Y-3.5775
X5.0625Y-3.6775
X5.0625Y-3.7775
X5.0625Y-3.8775
X5.0625Y-3.9775
X4.7825Y-4.74
X4.8825Y-4.74
T3
X5.2333Y-2.868
X5.2333Y-2.968
X5.2333Y-3.068
X5.2333Y-3.168
X5.2333Y-3.268
X5.2333Y-3.368
X5.2333Y-3.468
X5.2333Y-3.568
X5.2333Y-3.668
X5.2333Y-3.768
X5.2333Y-3.868
X5.2333Y-3.968
X5.2333Y-4.068
X5.2333Y-4.168
X5.2333Y-4.268
X5.2333Y-4.368
X5.2333Y-4.468
X5.2333Y-4.568
X5.2333Y-4.668
X5.2333Y-4.768
X5.3333Y-2.868
X5.3333Y-2.968
X5.3333Y-3.068
X5.3333Y-3.168
X5.3333Y-3.268
X5.3333Y-3.368
X5.3333Y-3.468
X5.3333Y-3.568
X5.3333Y-3.668
X5.3333Y-3.768
X5.3333Y-3.868
X5.3333Y-3.968
X5.3333Y-4.068
X5.3333Y-4.168
X5.3333Y-4.268
X5.3333Y-4.368
X5.3333Y-4.468
X5.3333Y-4.568
X5.3333Y-4.668
X5.3333Y-4.768
X4.905Y-4.23
X4.905Y-4.33
X4.905Y-4.43
X5.005Y-4.23
X5.005Y-4.33
X5.005Y-4.43
T4
X4.775Y-2.86
X4.875Y-2.86
X4.975Y-2.86
T0
M30
